<?xml version="1.0" encoding="iso-8859-1"?>
<!-- Generator: Adobe Illustrator 19.0.0, SVG Export Plug-In . SVG Version: 6.00 Build 0)  -->
<svg version="1.1" id="Layer_1" xmlns="http://www.w3.org/2000/svg" xmlns:xlink="http://www.w3.org/1999/xlink" x="0px" y="0px"
	 viewBox="0 0 512 512" style="enable-background:new 0 0 512 512;" xml:space="preserve">
<circle style="fill:#FFD15D;" cx="256" cy="256" r="256"/>
<path style="fill:#F9B54C;" d="M512,256c0-7.923-0.379-15.757-1.084-23.495L377.968,99.556l-154.972,225.12l-106.2,87.769
	l95.889,95.889c14.083,2.4,28.55,3.667,43.317,3.667C397.384,512,512,397.384,512,256z"/>
<rect x="150.411" y="99.556" style="fill:#FC6F58;" width="227.556" height="312.889"/>
<g>
	<rect x="270.36" y="99.556" style="fill:#F1543F;" width="107.606" height="312.889"/>
	<rect x="116.796" y="99.556" style="fill:#F1543F;" width="56.889" height="312.889"/>
</g>
<polygon style="fill:#E6F3FF;" points="314.023,199.509 282.796,199.509 282.796,170.667 259.375,170.667 259.375,199.509 
	228.147,199.509 228.147,222.93 259.375,222.93 259.375,328.108 282.796,328.108 282.796,222.93 314.023,222.93 "/>
<polygon style="fill:#CFDBE6;" points="282.796,199.509 282.796,170.667 270.367,170.667 270.367,328.108 282.796,328.108 
	282.796,222.93 314.023,222.93 314.023,199.509 "/>
<g>
</g>
<g>
</g>
<g>
</g>
<g>
</g>
<g>
</g>
<g>
</g>
<g>
</g>
<g>
</g>
<g>
</g>
<g>
</g>
<g>
</g>
<g>
</g>
<g>
</g>
<g>
</g>
<g>
</g>
</svg>
