<?xml version="1.0" encoding="iso-8859-1"?>
<!-- Generator: Adobe Illustrator 19.0.0, SVG Export Plug-In . SVG Version: 6.00 Build 0)  -->
<svg version="1.1" id="Layer_1" xmlns="http://www.w3.org/2000/svg" xmlns:xlink="http://www.w3.org/1999/xlink" x="0px" y="0px"
	 viewBox="0 0 512 512" style="enable-background:new 0 0 512 512;" xml:space="preserve">
<path style="fill:#FFDB6C;" d="M400.638,123.005H289.093V21.655c0-7.476-4.814-12.289-12.29-12.289h-41.268
	c-7.476,0-13.876,4.813-13.876,12.289v101.35H111.698c-7.476,0-13.669,5.984-13.669,13.461v41.268
	c0,7.476,6.193,13.954,13.669,13.954h109.96v296.16c0,7.476,6.399,14.787,13.876,14.787h41.268c7.476,0,12.29-7.31,12.29-14.787
	v-296.16h111.545c7.476,0,13.333-6.477,13.333-13.954v-41.268C413.971,128.989,408.115,123.005,400.638,123.005z"/>
<rect x="221.659" y="192.937" style="fill:#FFB04C;" width="67.434" height="23.727"/>
<path d="M276.923,512h-41.848c-12.563,0-22.783-10.22-22.783-22.783V201.054H110.614c-12.104,0-21.951-9.847-21.951-21.951v-43.797
	c0-11.947,9.719-21.666,21.666-21.666h101.963V21.872C212.293,9.812,222.104,0,234.165,0h42.759
	c11.873,0,21.534,9.661,21.534,21.534v92.105H400.63c12.52,0,22.707,10.186,22.707,22.707v42.13
	c0,12.449-10.129,22.578-22.578,22.578H289.093c-5.172,0-9.366-4.193-9.366-9.366s4.193-9.366,9.366-9.366h111.666
	c2.084,0,3.846-1.762,3.846-3.846v-42.13c0-2.154-1.821-3.975-3.975-3.975H289.093c-5.172,0-9.366-4.193-9.366-9.366V21.534
	c0-1.545-1.258-2.802-2.802-2.802h-42.759c-1.732,0-3.141,1.409-3.141,3.141v101.132c0,5.172-4.193,9.366-9.366,9.366H110.33
	c-1.617,0-2.935,1.316-2.935,2.935v43.797c0,1.775,1.444,3.219,3.219,3.219h111.044c5.172,0,9.366,4.193,9.366,9.366v297.529
	c0,2.195,1.856,4.051,4.051,4.051h41.848c1.546,0,2.804-1.258,2.804-2.803V237.477c0-5.172,4.193-9.366,9.366-9.366
	s9.366,4.193,9.366,9.366v252.988C298.459,502.339,288.798,512,276.923,512z"/>
<g>
</g>
<g>
</g>
<g>
</g>
<g>
</g>
<g>
</g>
<g>
</g>
<g>
</g>
<g>
</g>
<g>
</g>
<g>
</g>
<g>
</g>
<g>
</g>
<g>
</g>
<g>
</g>
<g>
</g>
</svg>
