<?xml version="1.0" encoding="iso-8859-1"?>
<!-- Generator: Adobe Illustrator 19.0.0, SVG Export Plug-In . SVG Version: 6.00 Build 0)  -->
<svg version="1.1" id="Layer_1" xmlns="http://www.w3.org/2000/svg" xmlns:xlink="http://www.w3.org/1999/xlink" x="0px" y="0px"
	 viewBox="0 0 512 512" style="enable-background:new 0 0 512 512;" xml:space="preserve">
<circle style="fill:#E6F3FF;" cx="256" cy="256" r="256"/>
<path style="fill:#CFDBE6;" d="M295.331,508.994c103.477-15.957,186.501-93.875,209.989-194.667L361.734,170.741l-2.11,2.7
	l-26.386-25.743l-0.646,0.579l-51.793-51.793l-13.879,58.378l-116.931,65.751l38.171,38.171l-41.913,60.25l109.161,109.163
	l-24.483,16.387L295.331,508.994z"/>
<polygon style="fill:#6E4277;" points="166.029,172.525 146.246,319.036 195.439,358.605 193.834,215.302 "/>
<polygon style="fill:#5E3668;" points="345.691,172.525 358.526,266.635 317.354,296.579 317.886,215.302 "/>
<polygon style="fill:#F9B54C;" points="361.734,170.741 280.798,170.741 280.798,96.485 230.924,96.485 230.924,170.741 
	149.988,170.741 149.988,220.615 230.924,220.615 230.924,444.587 280.798,444.587 280.798,220.615 361.734,220.615 "/>
<polygon style="fill:#F4A200;" points="280.798,170.741 280.798,96.485 256.002,96.485 256.002,444.587 280.798,444.587 
	280.798,220.615 361.734,220.615 361.734,170.741 "/>
<path style="fill:#6E4277;" d="M345.693,170.374c-56.67,27.762-122.992,27.762-179.664,0c2.672-5.454,5.344-10.911,8.018-16.365
	c5.346-10.912,17.953-16.358,29.462-12.459c33.942,11.5,70.765,11.5,104.707,0c11.509-3.899,24.116,1.546,29.46,12.459
	C340.347,159.463,343.019,164.919,345.693,170.374z"/>
<path style="fill:#5E3668;" d="M337.675,154.009c-5.346-10.912-17.953-16.358-29.462-12.459
	c-16.927,5.735-34.569,8.607-52.214,8.623v41.02c30.701-0.021,61.399-6.959,89.691-20.82
	C343.019,164.919,340.347,159.463,337.675,154.009z"/>
<g>
</g>
<g>
</g>
<g>
</g>
<g>
</g>
<g>
</g>
<g>
</g>
<g>
</g>
<g>
</g>
<g>
</g>
<g>
</g>
<g>
</g>
<g>
</g>
<g>
</g>
<g>
</g>
<g>
</g>
</svg>
