<?xml version="1.0" encoding="iso-8859-1"?>
<!-- Generator: Adobe Illustrator 19.0.0, SVG Export Plug-In . SVG Version: 6.00 Build 0)  -->
<svg version="1.1" id="Layer_1" xmlns="http://www.w3.org/2000/svg" xmlns:xlink="http://www.w3.org/1999/xlink" x="0px" y="0px"
	 viewBox="0 0 512 512" style="enable-background:new 0 0 512 512;" xml:space="preserve">
<circle style="fill:#324A5E;" cx="256" cy="256" r="256"/>
<path style="fill:#2B3B4E;" d="M290.24,509.714c107.753-14.405,194.291-95.828,216.31-200.982L359.434,161.616l-85.62,37.495
	l-91.724,34.854l73.337,73.337l9.209,48.7l-46.67,81.439L290.24,509.714z"/>
<path style="fill:#FFD15D;" d="M294.035,437.441c-20.973-27.295-28.444-142.222-28.444-142.222h-19.178
	c0,0-7.471,114.928-28.444,142.222H294.035z"/>
<g>
	<path style="fill:#F9B54C;" d="M265.588,295.219h-9.3v142.222h37.745C273.06,410.146,265.588,295.219,265.588,295.219z"/>
	<circle style="fill:#F9B54C;" cx="256" cy="284.444" r="28.444"/>
</g>
<path style="fill:#F4A200;" d="M284.444,284.444c0-15.612-12.581-28.274-28.157-28.431v56.86
	C271.863,312.718,284.444,300.056,284.444,284.444z"/>
<path style="fill:#FFD15D;" d="M359.434,161.616c0,57.125-46.309,103.434-103.434,103.434s-103.434-46.309-103.434-103.434H359.434z
	"/>
<path style="fill:#F9B54C;" d="M359.434,161.616H256.288v103.427C313.28,264.887,359.434,218.645,359.434,161.616z"/>
<path style="fill:#F9D37D;" d="M352.397,199.111c3.482-8.945,5.756-18.491,6.62-28.444H152.983
	c0.864,9.954,3.138,19.499,6.62,28.444H352.397z"/>
<path style="fill:#FFD15D;" d="M359.017,170.667H256.288v28.444h96.109C355.88,190.166,358.153,180.62,359.017,170.667z"/>
<circle style="fill:#F1543F;" cx="256" cy="185.32" r="7.823"/>
<g>
	<path style="fill:#C1321F;" d="M263.823,185.32c0-4.222-3.351-7.639-7.535-7.794v15.588
		C260.472,192.958,263.823,189.542,263.823,185.32z"/>
	<circle style="fill:#C1321F;" cx="299.804" cy="185.32" r="7.823"/>
</g>
<g>
	<circle style="fill:#F1543F;" cx="212.196" cy="185.32" r="7.823"/>
	<circle style="fill:#F1543F;" cx="170.736" cy="185.32" r="7.823"/>
</g>
<circle style="fill:#C1321F;" cx="341.264" cy="185.32" r="7.823"/>
<g>
</g>
<g>
</g>
<g>
</g>
<g>
</g>
<g>
</g>
<g>
</g>
<g>
</g>
<g>
</g>
<g>
</g>
<g>
</g>
<g>
</g>
<g>
</g>
<g>
</g>
<g>
</g>
<g>
</g>
</svg>
