<?xml version="1.0" encoding="iso-8859-1"?>
<!-- Generator: Adobe Illustrator 19.0.0, SVG Export Plug-In . SVG Version: 6.00 Build 0)  -->
<svg version="1.1" id="Layer_1" xmlns="http://www.w3.org/2000/svg" xmlns:xlink="http://www.w3.org/1999/xlink" x="0px" y="0px"
	 viewBox="0 0 512 512" style="enable-background:new 0 0 512 512;" xml:space="preserve">
<circle style="fill:#B5F1F4;" cx="256" cy="256" r="256"/>
<path style="fill:#84DBFF;" d="M390.003,242.435l-1.195,1.386l-81.953-81.953l-0.398,2.427l-36.588-36.588l-2.451,58.908
	l-62.273,2.993l59.664,59.664l-2,48.037l-54.875-54.875l-0.877,1.508l-30.372-30.372l-3.736,48.597l-50.95,3.701l47.049,47.049
	l-4.415,57.435l137.494,137.494c88.714-16.144,161.471-78.008,192.995-160.29L390.003,242.435z"/>
<g>
	<path style="fill:#3DC463;" d="M256,312.889c-82.465,0-155.81,39.002-202.631,99.556C100.19,472.998,173.535,512,256,512
		s155.81-39.002,202.631-99.556C411.81,351.891,338.465,312.889,256,312.889z"/>
	<path style="fill:#3DC463;" d="M256,312.889c-82.465,0-155.81,39.002-202.631,99.556C100.19,472.998,173.535,512,256,512
		s155.81-39.002,202.631-99.556C411.81,351.891,338.465,312.889,256,312.889z"/>
</g>
<path style="fill:#239E40;" d="M256,312.889c-0.191,0-0.383,0.009-0.574,0.009v199.094c0.191,0,0.383,0.009,0.574,0.009
	c82.465,0,155.81-39.002,202.631-99.556C411.81,351.891,338.465,312.889,256,312.889z"/>
<polygon style="fill:#324A5E;" points="306.855,161.868 269.869,161.868 269.869,127.709 242.131,127.709 242.131,161.868 
	205.145,161.868 205.145,189.607 242.131,189.607 242.129,341.333 269.869,341.333 269.869,189.607 306.855,189.607 "/>
<g>
	<polygon style="fill:#2B3B4E;" points="269.869,161.868 269.869,127.709 255.426,127.709 255.426,341.333 269.869,341.333 
		269.869,189.607 306.855,189.607 306.855,161.868 	"/>
	<polygon style="fill:#2B3B4E;" points="390.003,242.435 358.753,242.435 358.753,213.573 335.315,213.573 335.315,242.435 
		304.066,242.435 304.066,265.871 335.315,265.871 335.315,371.121 358.753,371.121 358.753,265.871 390.003,265.871 	"/>
</g>
<polygon style="fill:#324A5E;" points="207.934,242.435 176.685,242.433 176.685,213.571 153.248,213.571 153.248,242.433 
	121.999,242.433 121.999,265.871 153.248,265.871 153.248,371.121 176.685,371.121 176.685,265.871 207.934,265.871 "/>
<g>
</g>
<g>
</g>
<g>
</g>
<g>
</g>
<g>
</g>
<g>
</g>
<g>
</g>
<g>
</g>
<g>
</g>
<g>
</g>
<g>
</g>
<g>
</g>
<g>
</g>
<g>
</g>
<g>
</g>
</svg>
